<svg version="1.0" xmlns="http://www.w3.org/2000/svg" viewBox="0 0 1024 1024" preserveAspectRatio="xMidYMid meet">
<rect x="0" y="0" width="1024" height="1024" fill="#F6C844" rx="160"></rect>
<g transform="translate(0,1024) scale(0.1,-0.1)"
fill="#000000" stroke="none">
<path d="M5127 9228 c-10 -29 -24 -70 -32 -90 -8 -21 -21 -55 -29 -75 -51
-137 -88 -218 -222 -486 -152 -304 -243 -467 -409 -737 -258 -418 -312 -504
-355 -570 -54 -83 -252 -399 -313 -499 -22 -36 -64 -114 -94 -175 -30 -61 -58
-118 -63 -127 -7 -15 -56 -132 -85 -209 -7 -19 -24 -66 -36 -105 -12 -38 -26
-78 -30 -87 -5 -10 -9 -27 -9 -39 0 -11 -4 -28 -10 -38 -47 -89 -82 -499 -60
-726 11 -120 58 -353 80 -400 6 -11 21 -51 36 -90 61 -166 166 -345 301 -517
233 -296 567 -514 921 -602 82 -21 299 -49 312 -41 14 8 13 250 -1 300 -23 84
-88 140 -284 246 -105 56 -133 77 -226 169 -97 96 -111 114 -158 211 -70 146
-92 234 -98 396 -7 170 17 306 89 518 36 107 46 128 156 355 86 179 176 336
322 565 46 72 99 156 119 187 20 31 63 95 96 143 33 47 67 98 75 112 9 15 21
28 26 30 11 4 307 -429 364 -532 18 -33 43 -73 55 -90 32 -42 163 -272 218
-380 87 -172 156 -338 192 -460 14 -49 30 -103 35 -120 27 -87 37 -326 20
-447 -14 -96 -69 -251 -120 -338 -45 -77 -194 -235 -247 -262 -169 -87 -295
-168 -339 -221 -53 -63 -64 -106 -64 -253 l0 -134 59 0 c54 0 190 24 286 50
289 80 532 227 756 457 167 171 222 240 321 402 71 116 164 350 196 496 6 28
16 70 21 95 35 162 38 522 6 700 -60 332 -214 708 -432 1055 -27 44 -95 152
-150 240 -54 88 -171 275 -259 415 -88 140 -179 289 -203 330 -24 41 -65 111
-91 155 -96 161 -265 474 -341 634 -44 90 -79 165 -79 166 0 2 -17 41 -39 87
-49 106 -71 159 -117 286 -20 56 -40 102 -43 102 -4 0 -14 -24 -24 -52z"/>
<path d="M5133 5688 c-33 -43 -197 -382 -236 -489 -57 -152 -72 -228 -71 -364
1 -163 20 -221 106 -327 55 -67 123 -98 213 -98 90 0 155 30 221 103 88 97
120 204 111 371 -9 175 -55 318 -181 571 -76 152 -131 245 -145 245 -5 0 -13
-6 -18 -12z"/>
<path d="M2717 3212 c-401 -2 -428 -3 -423 -20 2 -9 7 -39 11 -67 10 -72 76
-267 125 -371 53 -111 153 -275 215 -351 80 -99 265 -281 360 -352 219 -165
525 -306 785 -362 180 -38 484 -78 598 -79 l62 0 0 -55 0 -55 -47 -24 c-27
-13 -70 -43 -97 -67 -87 -77 -169 -229 -134 -250 20 -13 1915 -11 1939 1 24
13 19 42 -23 121 -36 69 -103 135 -188 187 l-65 39 0 49 0 49 110 7 c128 9
306 31 422 52 111 21 379 100 488 143 441 176 785 498 1010 945 79 158 155
400 138 444 -4 12 -72 14 -407 14 -220 1 -1312 2 -2426 3 -1114 1 -2218 1
-2453 -1z"/>
</g>
</svg>